<mxfile host="app.diagrams.net" modified="2022-12-01T12:56:38.426Z" agent="5.0 (Windows NT 10.0; Win64; x64) AppleWebKit/537.36 (KHTML, like Gecko) Chrome/107.0.0.0 Safari/537.36" etag="g59kiMVSxRSFJrsRu5_2" version="20.3.7" type="github">
  <diagram id="5aeY5va9fe8phS7UtR5I" name="第 1 页">
    <mxGraphModel dx="1595" dy="572" grid="0" gridSize="10" guides="1" tooltips="1" connect="1" arrows="1" fold="1" page="0" pageScale="1" pageWidth="827" pageHeight="1169" math="0" shadow="0">
      <root>
        <mxCell id="0" />
        <mxCell id="1" parent="0" />
        <mxCell id="JI1LEIXd5C3i47NpXmIB-1" value="" style="rounded=1;whiteSpace=wrap;html=1;hachureGap=4;" vertex="1" parent="1">
          <mxGeometry x="66" y="97" width="200" height="224" as="geometry" />
        </mxCell>
        <mxCell id="JI1LEIXd5C3i47NpXmIB-3" value="Kubernetes&lt;br&gt;API Server" style="rounded=0;whiteSpace=wrap;html=1;hachureGap=4;" vertex="1" parent="1">
          <mxGeometry x="83" y="134" width="78" height="104" as="geometry" />
        </mxCell>
        <mxCell id="JI1LEIXd5C3i47NpXmIB-4" value="etcd" style="rounded=0;whiteSpace=wrap;html=1;hachureGap=4;" vertex="1" parent="1">
          <mxGeometry x="91.5" y="261" width="61" height="36" as="geometry" />
        </mxCell>
        <mxCell id="JI1LEIXd5C3i47NpXmIB-7" value="Resource&lt;br&gt;Controllers" style="rounded=0;whiteSpace=wrap;html=1;hachureGap=4;" vertex="1" parent="1">
          <mxGeometry x="196" y="131" width="55" height="159" as="geometry" />
        </mxCell>
        <mxCell id="JI1LEIXd5C3i47NpXmIB-9" value="cli" style="rounded=1;whiteSpace=wrap;html=1;hachureGap=4;" vertex="1" parent="1">
          <mxGeometry x="-67" y="124" width="76" height="43" as="geometry" />
        </mxCell>
        <mxCell id="JI1LEIXd5C3i47NpXmIB-10" value="client &lt;br&gt;libraries" style="rounded=1;whiteSpace=wrap;html=1;hachureGap=4;" vertex="1" parent="1">
          <mxGeometry x="-67" y="188" width="76" height="43" as="geometry" />
        </mxCell>
        <mxCell id="JI1LEIXd5C3i47NpXmIB-11" value="user interfaces" style="rounded=1;whiteSpace=wrap;html=1;hachureGap=4;" vertex="1" parent="1">
          <mxGeometry x="-67" y="251" width="76" height="43" as="geometry" />
        </mxCell>
        <mxCell id="JI1LEIXd5C3i47NpXmIB-16" value="" style="endArrow=classic;startArrow=classic;html=1;rounded=0;startSize=14;endSize=14;sourcePerimeterSpacing=8;targetPerimeterSpacing=8;curved=1;exitX=1;exitY=0.5;exitDx=0;exitDy=0;entryX=0;entryY=0.25;entryDx=0;entryDy=0;" edge="1" parent="1" source="JI1LEIXd5C3i47NpXmIB-9" target="JI1LEIXd5C3i47NpXmIB-3">
          <mxGeometry width="50" height="50" relative="1" as="geometry">
            <mxPoint x="165" y="234" as="sourcePoint" />
            <mxPoint x="215" y="184" as="targetPoint" />
          </mxGeometry>
        </mxCell>
      </root>
    </mxGraphModel>
  </diagram>
</mxfile>
